<svg width="18" height="16" viewBox="0 0 18 16" fill="none" xmlns="http://www.w3.org/2000/svg">
<path d="M17.252 8L15.422 5.9075L15.677 3.14L12.9695 2.525L11.552 0.125L9.00195 1.22L6.45195 0.125L5.03445 2.5175L2.32695 3.125L2.58195 5.9L0.751953 8L2.58195 10.0925L2.32695 12.8675L5.03445 13.4825L6.45195 15.875L9.00195 14.7725L11.552 15.8675L12.9695 13.475L15.677 12.86L15.422 10.0925L17.252 8ZM7.03695 11.0075L5.25195 9.2075C4.95945 8.915 4.95945 8.4425 5.25195 8.15L5.30445 8.0975C5.59695 7.805 6.07695 7.805 6.36945 8.0975L7.57695 9.3125L11.4395 5.4425C11.732 5.15 12.212 5.15 12.5045 5.4425L12.557 5.495C12.8495 5.7875 12.8495 6.26 12.557 6.5525L8.11695 11.0075C7.80945 11.3 7.33695 11.3 7.03695 11.0075Z" fill="#CD547D"/>
</svg>
